# xmcd
#
# Track frame offsets:
#	150
#	19802
#	30835
#	41947
#	64832
#	78550
#	112952
#	134467
#	142210
#	157042
#	173990
#	191320
#	210372
#	234435
#	255950
#	269980
#	292945
#
# Disc length: 4117
#
# Revision: 1
# Processed by: cddbd v1.5.1PL0 Copyright (c) Steve Scherf et al.
# Submitted via: CDex 1.40Release
# Normalized: r0:DSETVAR1,TDELIM( - )
#
DISCID=f3101311
DTITLE=Various Artist - Wine Women And Whisky
DYEAR=1998
DGENRE=Blues
TTITLE0=Fred James - Everybody's Gettin' Them Some
TTITLE1=Nine Below Zero - Is That You (Live)
TTITLE2=Stan Webb's Chicken Shack - Brocken Glass
TTITLE3=Blodwyn Pig - Cats Squirrel
TTITLE4=Ruby Turner - A Rockin' Good Way
TTITLE5=Pauk Lamb and The King Snakes - BlackJack Game
TTITLE6=Carmel - You Promised Me The World (Live)
TTITLE7=Peter Green - Coming, I'm Coming
TTITLE8=Dr Feelgood - Wine, Women And Whisky
TTITLE9=Duster Bennett - Rock Of Ages Cleft For Me
TTITLE10=Allexis Korner - Rock Me
TTITLE11=Peter Golding - Crucify Me
TTITLE12=Groundhogs - Groundhog Blues (Live)
TTITLE13=Peter Brown and Phil Ryan - Dark City
TTITLE14=Jerry Portonoy - Blues In A Dream
TTITLE15=Chris Farlowe - Watching The River Flow
TTITLE16=Mick Abraham's Blodwyn Pig - The Rivers Invitation
EXTD=YEAR: 1998 ID3G: 0
EXTT0=
EXTT1=
EXTT2=
EXTT3=
EXTT4=
EXTT5=
EXTT6=
EXTT7=
EXTT8=
EXTT9=
EXTT10=
EXTT11=
EXTT12=
EXTT13=
EXTT14=
EXTT15=
EXTT16=
PLAYORDER=
